<svg width="241" height="139" viewBox="0 0 241 139" fill="none" xmlns="http://www.w3.org/2000/svg">
<g opacity="0.5">
<path d="M216.767 136.568H27C24.2386 136.568 22 134.33 22 131.568V123.863C22 122.126 22.9011 120.514 24.3802 119.604L185.795 20.3096C186.583 19.825 187.49 19.5684 188.415 19.5684H192.989C195.333 19.5684 197.362 21.196 197.87 23.4837L221.648 130.484C222.342 133.606 219.966 136.568 216.767 136.568Z" fill="#B6BABF"/>
<path d="M181.771 12.5684H50.9397C46.2902 12.5684 42.2541 15.7729 41.2001 20.3014L18.8552 116.301C17.3956 122.572 22.1563 128.568 28.5949 128.568H162.323C167.08 128.568 171.179 125.217 172.124 120.554L191.572 24.5539C192.827 18.3591 188.092 12.5684 181.771 12.5684Z" fill="#FFFDFE" stroke="#D2D5D9" stroke-width="2" stroke-linecap="square"/>
<path d="M75.5 104.568H105.5L108.75 89.3184H78.875L75.5 104.568Z" fill="#ED9B6D"/>
<path d="M136.625 58.8184H115.25L112 74.0684H133.25L136.625 58.8184Z" fill="#ED9B6D"/>
<path d="M52 74.0684L48.25 89.3184M52 74.0684L55.75 58.8184M52 74.0684H112M158.25 74.0684L154.875 89.3184M158.25 74.0684L161.625 58.8184M158.25 74.0684H133.25M118.5 43.5684H89M118.5 43.5684H140M118.5 43.5684L115.25 58.8184M89 43.5684H61.8517C60.4707 43.5684 59.2682 44.511 58.9385 45.852L55.75 58.8184M89 43.5684L78.875 89.3184M140 43.5684H161.263C163.182 43.5684 164.607 45.3438 164.193 47.2166L161.625 58.8184M140 43.5684L136.625 58.8184M75.5 104.568H48.3271C46.3801 104.568 44.949 102.743 45.4139 100.852L48.25 89.3184M75.5 104.568H105.5M75.5 104.568L78.875 89.3184M105.5 104.568H126.5M105.5 104.568L108.75 89.3184M126.5 104.568H149.091C150.498 104.568 151.716 103.59 152.02 102.217L154.875 89.3184M126.5 104.568L133.25 74.0684M48.25 89.3184H78.875M154.875 89.3184H108.75M55.75 58.8184H115.25M161.625 58.8184H136.625M108.75 89.3184H78.875M108.75 89.3184L112 74.0684M136.625 58.8184H115.25M136.625 58.8184L133.25 74.0684M115.25 58.8184L112 74.0684M112 74.0684H133.25" stroke="#D2D5D9" stroke-width="2" stroke-linecap="square"/>
<ellipse cx="66.5" cy="25.0684" rx="4.5" ry="4" fill="#AAB0B6"/>
<ellipse cx="99.5" cy="25.0684" rx="4.5" ry="4" fill="#AAB0B6"/>
<ellipse cx="131.5" cy="25.0684" rx="4.5" ry="4" fill="#AAB0B6"/>
<ellipse cx="164.5" cy="25.0684" rx="4.5" ry="4" fill="#AAB0B6"/>
<path d="M64.3668 25.872C65.0868 27.0501 66.6255 27.4215 67.8036 26.7016C68.9818 25.9816 69.3532 24.4429 68.6332 23.2647L66.5 24.5684L64.3668 25.872ZM68.5778 2.58168L68.9487 5.05402L68.5778 2.58168ZM66.5 24.5684L68.6332 23.2647L64.9685 17.2679L62.8353 18.5716L60.7021 19.8752L64.3668 25.872L66.5 24.5684ZM61.2923 12.0609L63.7836 12.2686L63.9653 10.0887L61.4739 9.88105L58.9826 9.67344L58.8009 11.8533L61.2923 12.0609ZM68.2645 2.62869L68.6353 5.10103L68.9487 5.05402L68.5778 2.58168L68.207 0.109341L67.8936 0.156346L68.2645 2.62869ZM77 9.83473H74.5V12.0684H77H79.5V9.83473H77ZM74.5721 4.38327L72.8997 6.24151C73.9183 7.15827 74.5 8.46431 74.5 9.83473H77H79.5C79.5 7.04687 78.3167 4.39001 76.2445 2.52503L74.5721 4.38327ZM68.5778 2.58168L68.9487 5.05402C70.377 4.83978 71.8262 5.27536 72.8997 6.24151L74.5721 4.38327L76.2445 2.52503C74.0607 0.5596 71.1125 -0.326487 68.207 0.109341L68.5778 2.58168ZM61.4739 9.88105L63.9653 10.0887C64.1773 7.54445 66.1106 5.47974 68.6353 5.10103L68.2645 2.62869L67.8936 0.156346C63.076 0.878991 59.3871 4.81873 58.9826 9.67344L61.4739 9.88105ZM62.8353 18.5716L64.9685 17.2679C64.0528 15.7695 63.6378 14.0185 63.7836 12.2686L61.2923 12.0609L58.8009 11.8533C58.5669 14.6613 59.2328 17.4709 60.7021 19.8752L62.8353 18.5716Z" fill="#D2D5D9"/>
<path d="M97.3668 25.872C98.0868 27.0501 99.6255 27.4215 100.804 26.7016C101.982 25.9816 102.353 24.4429 101.633 23.2647L99.5 24.5684L97.3668 25.872ZM101.578 2.58168L101.949 5.05402L101.578 2.58168ZM99.5 24.5684L101.633 23.2647L97.9685 17.2679L95.8353 18.5716L93.7021 19.8752L97.3668 25.872L99.5 24.5684ZM94.2923 12.0609L96.7836 12.2686L96.9653 10.0887L94.4739 9.88105L91.9826 9.67344L91.8009 11.8533L94.2923 12.0609ZM101.264 2.62869L101.635 5.10103L101.949 5.05402L101.578 2.58168L101.207 0.109341L100.894 0.156346L101.264 2.62869ZM110 9.83473H107.5V12.0684H110H112.5V9.83473H110ZM107.572 4.38327L105.9 6.24151C106.918 7.15827 107.5 8.46431 107.5 9.83473H110H112.5C112.5 7.04687 111.317 4.39001 109.245 2.52503L107.572 4.38327ZM101.578 2.58168L101.949 5.05402C103.377 4.83978 104.826 5.27536 105.9 6.24151L107.572 4.38327L109.245 2.52503C107.061 0.5596 104.113 -0.326487 101.207 0.109341L101.578 2.58168ZM94.4739 9.88105L96.9653 10.0887C97.1773 7.54445 99.1106 5.47974 101.635 5.10103L101.264 2.62869L100.894 0.156346C96.076 0.878991 92.3871 4.81873 91.9826 9.67344L94.4739 9.88105ZM95.8353 18.5716L97.9685 17.2679C97.0528 15.7695 96.6378 14.0185 96.7836 12.2686L94.2923 12.0609L91.8009 11.8533C91.5669 14.6613 92.2328 17.4709 93.7021 19.8752L95.8353 18.5716Z" fill="#D2D5D9"/>
<path d="M129.367 25.872C130.087 27.0501 131.625 27.4215 132.804 26.7016C133.982 25.9816 134.353 24.4429 133.633 23.2647L131.5 24.5684L129.367 25.872ZM133.578 2.58168L133.949 5.05402L133.578 2.58168ZM131.5 24.5684L133.633 23.2647L129.968 17.2679L127.835 18.5716L125.702 19.8752L129.367 25.872L131.5 24.5684ZM126.292 12.0609L128.784 12.2686L128.965 10.0887L126.474 9.88105L123.983 9.67344L123.801 11.8533L126.292 12.0609ZM133.264 2.62869L133.635 5.10103L133.949 5.05402L133.578 2.58168L133.207 0.109341L132.894 0.156346L133.264 2.62869ZM142 9.83473H139.5V12.0684H142H144.5V9.83473H142ZM139.572 4.38327L137.9 6.24151C138.918 7.15827 139.5 8.46431 139.5 9.83473H142H144.5C144.5 7.04687 143.317 4.39001 141.245 2.52503L139.572 4.38327ZM133.578 2.58168L133.949 5.05402C135.377 4.83978 136.826 5.27536 137.9 6.24151L139.572 4.38327L141.245 2.52503C139.061 0.5596 136.113 -0.326487 133.207 0.109341L133.578 2.58168ZM126.474 9.88105L128.965 10.0887C129.177 7.54445 131.111 5.47974 133.635 5.10103L133.264 2.62869L132.894 0.156346C128.076 0.878991 124.387 4.81873 123.983 9.67344L126.474 9.88105ZM127.835 18.5716L129.968 17.2679C129.053 15.7695 128.638 14.0185 128.784 12.2686L126.292 12.0609L123.801 11.8533C123.567 14.6613 124.233 17.4709 125.702 19.8752L127.835 18.5716Z" fill="#D2D5D9"/>
<path d="M162.367 25.872C163.087 27.0501 164.625 27.4215 165.804 26.7016C166.982 25.9816 167.353 24.4429 166.633 23.2647L164.5 24.5684L162.367 25.872ZM166.578 2.58168L166.949 5.05402L166.578 2.58168ZM164.5 24.5684L166.633 23.2647L162.968 17.2679L160.835 18.5716L158.702 19.8752L162.367 25.872L164.5 24.5684ZM159.292 12.0609L161.784 12.2686L161.965 10.0887L159.474 9.88105L156.983 9.67344L156.801 11.8533L159.292 12.0609ZM166.264 2.62869L166.635 5.10103L166.949 5.05402L166.578 2.58168L166.207 0.109341L165.894 0.156346L166.264 2.62869ZM175 9.83473H172.5V12.0684H175H177.5V9.83473H175ZM172.572 4.38327L170.9 6.24151C171.918 7.15827 172.5 8.46431 172.5 9.83473H175H177.5C177.5 7.04687 176.317 4.39001 174.245 2.52503L172.572 4.38327ZM166.578 2.58168L166.949 5.05402C168.377 4.83978 169.826 5.27536 170.9 6.24151L172.572 4.38327L174.245 2.52503C172.061 0.5596 169.113 -0.326487 166.207 0.109341L166.578 2.58168ZM159.474 9.88105L161.965 10.0887C162.177 7.54445 164.111 5.47974 166.635 5.10103L166.264 2.62869L165.894 0.156346C161.076 0.878991 157.387 4.81873 156.983 9.67344L159.474 9.88105ZM160.835 18.5716L162.968 17.2679C162.053 15.7695 161.638 14.0185 161.784 12.2686L159.292 12.0609L156.801 11.8533C156.567 14.6613 157.233 17.4709 158.702 19.8752L160.835 18.5716Z" fill="#D2D5D9"/>
<path d="M16 15.5684L7.5 9.06836" stroke="#ABB1B8" stroke-width="2" stroke-linecap="round"/>
<path d="M13 22.0684H4" stroke="#ABB1B8" stroke-width="1.5" stroke-linecap="round"/>
<path d="M22.5 11.0684L19.5 3.06836" stroke="#ABB1B8" stroke-width="1.5" stroke-linecap="round"/>
<path d="M1 137.068L240 137.068" stroke="#D4D8DD" stroke-width="2" stroke-linecap="round"/>
</g>
</svg>
