<svg width="225" height="177" viewBox="0 0 225 177" fill="none" xmlns="http://www.w3.org/2000/svg">
<g opacity="0.5">
<path d="M90.2625 132.751C66.7125 136.379 36.0374 134.433 20.475 113.644C17.16 109.252 15.2625 103.951 15.0375 98.4497C14.1075 77.4618 30.7799 77.3913 33.6899 61.4304C35.2949 52.6352 24.9225 40.0742 27.2475 29.2843C28.635 22.8507 31.9124 18.4119 37.5149 14.8065C55.0649 3.51173 73.4999 21.4786 90.8774 24.3121C107.992 27.5566 117.36 19.5409 130.56 9.57623C149.977 -5.07935 189.367 -3.27965 204.307 17.5132C211.852 28.0187 205.792 37.9789 202.642 48.7065C198.742 60.738 219.57 65.0785 222.33 72.6764C232.08 99.5344 210.825 102.759 192.982 108.422C179.97 112.554 189.12 139.901 175.02 146.232C153.465 155.909 141.802 136.918 122.962 131.202C118.56 129.687 114.628 117.107 110 111.828C106.55 112.927 105.517 112.474 102.172 111.828C98.685 117.001 93.9075 130.984 90.2625 132.751Z" fill="#4D5256"/>
<path d="M150.78 30.0235C157.47 23.1631 166.02 27.9651 171.27 33.8712C172.185 34.911 173.07 35.9823 173.917 37.0828C176.272 40.0498 176.962 41.1735 178.777 44.5126C181.312 50.5021 186.607 66.511 178.762 70.2679C171.997 73.5049 131.362 92.6834 127.005 91.6114L125.392 91.8649C117.847 88.2535 116.37 82.9452 111.9 76.715L111.63 76.3451C108.27 69.2581 107.34 66.9048 107.242 59.1089L107.7 57.409C109.642 54.2695 130.402 42.5104 135.112 39.7849C140.235 36.3649 145.455 33.1098 150.78 30.0235Z" fill="#EC9763"/>
<path d="M150.779 30.0234L151.057 31.4698L148.049 33.4646C147.517 37.0317 147.112 38.9229 147.464 42.529L148.499 45.7676C148.672 48.682 148.852 49.2424 149.782 52.0241C140.302 58.6932 123.584 69.892 113.594 75.6519C110.947 68.5956 109.604 64.7599 107.699 57.4089C109.642 54.2694 130.402 42.5103 135.112 39.7848C140.234 36.3648 145.454 33.1097 150.779 30.0234Z" fill="#EEA374"/>
<path d="M138.344 41.2005L141.449 40.3438C141.142 40.7571 140.759 41.34 140.384 41.6438C134.009 45.1742 119.361 56.6062 112.334 58.3549L113.729 57.5912L113.594 57.0188C120.434 51.8298 130.822 45.8261 138.344 41.2005Z" fill="#F9C59E"/>
<path d="M176.79 60.614C176.55 63.4046 176.715 64.0858 175.207 66.2988C164.82 71.142 147.217 38.398 156.382 32.9479C161.452 32.8121 162.78 34.3088 166.725 37.3823C172.402 45.0814 175.545 49.3627 176.625 59.0941L176.73 60.0431C176.752 60.2336 176.767 60.4234 176.79 60.614Z" fill="white"/>
<path d="M173.917 37.0823C176.272 40.0492 176.962 41.173 178.777 44.5121C178.11 45.0852 176.895 45.8557 176.94 46.4678C177.697 56.7258 181.912 53.8384 178.005 64.569L177.15 64.9186C177.12 63.8721 177.187 61.3665 176.79 60.6133C176.767 60.4227 176.752 60.2329 176.73 60.0424L176.625 59.0934C175.545 49.362 172.402 45.0807 166.725 37.3816C170.947 36.1093 169.837 38.9285 173.917 37.0823Z" fill="#E18852"/>
<path d="M107.7 57.4092C109.605 64.7602 110.947 68.596 113.595 75.6522C116.092 81.9575 121.747 87.5081 127.005 91.6116L125.392 91.8651C117.847 88.2537 116.37 82.9454 111.9 76.7152L111.63 76.3453C108.27 69.2583 107.34 66.905 107.242 59.1091L107.7 57.4092Z" fill="#E18852"/>
<path d="M148.049 33.4648C149.369 37.101 150.127 42.1542 148.499 45.7679L147.464 42.5293C147.112 38.9232 147.517 37.032 148.049 33.4648Z" fill="#E18852"/>
<path d="M111.63 76.3447L111.9 76.7146C116.37 82.9449 117.847 88.2532 125.392 91.8646L112.612 97.3334C107.97 99.3079 103.17 101.268 98.6248 103.45C90.1423 107.273 81.5924 110.939 72.9824 114.447C71.4674 113.27 68.7299 111.293 67.5749 109.921C65.3849 107.459 63.7348 104.651 61.9648 101.87C65.0023 101.069 109.792 78.3035 111.63 76.3447Z" fill="#EC9763"/>
<path d="M107.241 59.1094C107.339 66.9053 108.269 69.2586 111.629 76.3455C109.791 78.3043 65.001 101.07 61.9635 101.871C60.846 99.2322 60.1036 97.4182 58.6186 94.9156C58.8961 93.2765 57.9061 91.4693 58.3261 89.7483C59.3611 85.4805 100.701 63.1724 107.241 59.1094Z" fill="#EEA374"/>
<path d="M94.0576 70.0283L94.6576 70.3179L94.59 71.1146C88.4475 75.5174 77.91 81.1903 70.9875 85.266L70.0801 84.9105C71.5351 81.5774 89.4226 72.5047 94.0576 70.0283Z" fill="#F9C59E"/>
<path d="M58.6201 94.915C60.1051 97.4177 60.8475 99.2316 61.965 101.87C63.735 104.652 65.3851 107.46 67.5751 109.921C60.6526 113.639 63.0675 110.958 56.4525 111.762C54.7575 111.967 52.5376 117.04 48.5176 118.495C44.8726 117.373 42.9226 112.328 42.9676 108.796C45.1576 103.355 47.04 106.397 51.8475 104.121C56.385 99.6704 50.9926 99.4251 58.6201 94.915Z" fill="#F9C59E"/>
<path d="M98.625 103.45C103.17 101.269 107.97 99.3085 112.613 97.334C115.785 106.698 114.293 104.429 110.723 111.707C107.273 112.806 105.518 112.473 102.173 111.828C99.6226 107.795 99.45 108.164 98.625 103.45Z" fill="#D8DADB"/>
<path d="M66.6065 34.9326C68.279 38.6303 70.0715 38.9619 70.5815 41.6888C68.3765 44.1209 67.8891 44.9146 66.7341 47.9881C65.1741 44.706 62.5341 42.9656 62.4141 40.8786C64.5291 38.6738 64.8441 38.1524 66.2541 35.5913L66.6065 34.9326Z" fill="white"/>
<path d="M153.127 110.703C154.949 114.095 156.689 114.558 157.206 117.357C155.414 119.177 154.852 120.001 153.412 122.128L152.879 122.342C151.949 120.392 151.469 118.198 149.602 117.068C149.714 116.579 152.392 112.2 153.127 110.703Z" fill="white"/>
<path d="M186.067 19.8965L189.149 23.775C188.939 26.3834 187.912 26.6654 185.819 29.0187C184.852 27.3511 183.749 26.4531 182.602 24.4816L186.067 19.8965Z" fill="white"/>
<path d="M102 111.5C105.345 112.145 107.05 112.599 110.5 111.5C115.128 116.778 144 176 144 176L134.71 175.88C127.413 160.876 119.62 144.132 111.67 129.576C111.483 144.845 111.43 160.111 111.52 175.384H103.233C103.263 166.735 102.5 129.5 102.5 129.5C102.5 129.5 82.9675 170.756 81.0925 175.557C77.95 175.61 74.6275 175.715 71.5 175.692C71.5 175.692 98.5125 116.673 102 111.5Z" fill="#D8DADB"/>
<path d="M1 176H215" stroke="#D4D8DD" stroke-width="2" stroke-linecap="round"/>
</g>
</svg>
