<svg width="213" height="168" viewBox="0 0 213 168" fill="none" xmlns="http://www.w3.org/2000/svg">
<g opacity="0.5">
<path d="M35.984 11.6254C33.5915 11.7875 27.1265 22.6606 38.609 26.464C39.6515 49.8172 41.789 64.1075 60.4715 80.3235C62.6465 82.2154 68.654 87.4652 70.1915 89.6685C68.8565 92.6617 63.0665 97.5964 60.359 99.9932C43.739 114.692 38.159 131.284 39.479 153.099L136.589 153.046C137.744 129.847 131.242 113.082 113.294 98.1876L113.289 98.1832C110.94 96.2328 106.281 92.3649 105.284 89.7232C107.039 86.5147 116.436 79.4217 119.646 75.8546C132.501 61.5576 136.769 49.8225 136.394 31.3035L136.431 26.1813C145.139 24.7912 149.811 10.5032 130.049 10.8633C99.0365 11.4289 66.914 9.53168 35.984 11.6254Z" fill="white"/>
<path d="M84.8694 86.7444C77.5044 81.7511 60.5544 72.2523 58.2294 63.2524C60.0444 53.0409 82.1019 61.0064 88.4094 61.1136C95.8044 61.2389 112.409 54.4827 117.689 61.9681C117.667 71.3154 96.5694 81.2395 91.2294 86.6964C89.4369 88.5208 90.2844 117.549 90.3144 122.074C94.4394 125.68 95.7144 127.274 98.0919 132.325C111.217 138.275 115.462 139.761 121.184 153.376C112.919 153.661 59.1969 154.839 55.2969 152.206C60.2094 139.438 64.7769 137.758 76.8819 132.15C79.5594 127.767 80.9544 125.308 85.0269 122.105C85.0794 110.498 85.3269 98.3002 84.8694 86.7444Z" fill="#EEA374"/>
<path d="M38.609 26.464C27.1265 22.6606 33.5915 11.7875 35.984 11.6254C66.914 9.53168 99.0365 11.4289 130.049 10.8633C149.811 10.5032 145.139 24.7912 136.431 26.1813L130.026 26.2705C105.291 25.0965 70.829 26.1234 45.284 26.14L38.609 26.464Z" fill="#EC9763"/>
<path d="M38.6094 26.4637L45.2844 26.1396C44.6844 75.4207 73.9494 76.7845 76.3119 90.131C74.0469 102.763 44.557 105.304 45.442 153.286L39.4794 153.098C38.1594 131.284 43.7394 114.691 60.3594 99.9929C63.0669 97.5961 68.857 92.6614 70.192 89.6682C68.6545 87.4649 62.6469 82.2151 60.4719 80.3232C41.7894 64.1072 39.6519 49.8169 38.6094 26.4637Z" fill="#D3D6D9"/>
<path d="M130.027 26.2699L136.432 26.1807L136.394 31.3029C136.769 49.8219 132.502 61.557 119.647 75.854C116.437 79.4211 107.039 86.5141 105.284 89.7227C106.282 92.3663 110.947 96.238 113.294 98.187C131.242 113.082 137.744 129.846 136.589 153.046L130.597 153.278C130.537 150.465 130.447 147.644 130.342 144.824C129.457 122.26 119.062 109.038 101.939 95.5793C94.0118 89.2545 109.477 78.2329 113.722 73.857C128.279 58.8714 130.537 46.942 130.409 27.1311L130.027 26.2699Z" fill="#D3D6D9"/>
<path d="M182.797 0.286022C186.239 0.0309598 189.562 -0.249622 192.974 0.394035C199.289 1.61383 204.832 5.35274 208.334 10.7503C211.949 16.3632 212.939 22.9753 211.439 29.4531C210.037 35.7157 206.182 41.153 200.737 44.5483C194.452 48.465 188.557 48.6518 181.627 47.0749C173.587 43.9392 171.652 41.7224 167.182 34.3856C178.117 38.2655 187.582 37.1163 193.634 25.3466C200.692 11.6258 182.129 4.19445 181.079 1.83062L182.797 0.286022Z" fill="#EC9763"/>
<path d="M38.609 151C27.1265 154.803 33.5915 165.676 35.984 165.838C66.914 167.932 99.0365 166.035 130.049 166.601C149.811 166.961 145.139 152.673 136.431 151.283L130.026 151.193C105.291 152.367 70.829 151.34 45.284 151.324L38.609 151Z" fill="#EC9763"/>
<path d="M1 166.988L173 166" stroke="#D4D8DD" stroke-width="2" stroke-linecap="round"/>
</g>
</svg>
