<svg width="228" height="139" viewBox="0 0 228 139" fill="none" xmlns="http://www.w3.org/2000/svg">
<g opacity="0.5">
<path d="M117.385 20.8577C110.5 19.8502 97.5325 24.1968 91 26.7857V136.431H135.706C137 136.431 138.288 136.194 139.418 135.564C141.844 134.213 145.861 131.346 145.248 127.432C143.605 116.987 140.755 106.633 138.22 96.3599L124.585 41.334C123.58 37.322 120.333 22.6274 117.385 20.8577Z" fill="#D9D9D9"/>
<path d="M59.1845 3.4086C55.967 6.80243 57.2195 27.3837 57.3395 32.5299C57.4465 47.6543 59.0745 119.034 59.4256 134.303C59.463 135.932 60.7935 137.182 62.4232 137.182H88.1366C89.7926 137.182 91.1354 135.841 91.1364 134.185C91.1413 126.063 91.1528 103.897 91.1345 98.7291L91.0669 28.0319C91.1569 22.2465 91.8395 9.99221 90.2045 4.89546C86.8145 0.544401 64.2695 1.26758 59.1845 3.4086Z" fill="#83B345"/>
<path d="M114.643 37.793C116.225 37.5732 116.135 37.637 117.658 38.1801C119.323 40.5252 119.263 43.2641 119.585 46.2326L100.37 51.2393C96.0877 52.0277 94.5951 48.8387 95.1651 45.0923C98.2476 41.1246 109.078 39.3361 114.643 37.793Z" fill="#BABFC5"/>
<path d="M21.5681 33.7328C20.8632 44.5378 13.8667 114.82 12.4068 129.446C12.2335 131.181 13.3578 133.529 14.6315 134.72C15.7502 135.767 16.571 135.722 18.1026 135.742L31.844 135.924C36.9758 135.992 41.3265 132.183 41.9393 127.088C44.7711 103.542 52.627 40.9646 57.3881 30.0539L57.3956 24.4853C55.3256 21.5348 48.6581 19.4853 48.6581 19.4853C48.6581 19.4853 31.2206 15.4411 25.7831 18.42C22.6556 20.1342 21.7631 30.7365 21.5681 33.7328Z" fill="#EEA474"/>
<path d="M27.7327 36.7842C34.6027 37.3251 40.8876 36.8502 46.6851 40.1143C48.4476 42.8059 47.7576 42.9785 47.5176 46.9537C40.6476 46.1795 33.0127 47.0234 27.9952 43.6784C26.6227 40.6701 27.2452 40.6289 27.7327 36.7842Z" fill="#FDCFA4"/>
<path d="M216 137.209C218.408 130.475 220.97 111.094 222.178 103.335C224.565 103.335 226.5 101.4 226.5 99.0129V95.5221C226.5 91.207 223.002 87.709 218.687 87.709H170.48C166.073 87.709 162.5 91.2819 162.5 95.6894V99.3569C162.5 101.739 164.431 103.67 166.813 103.67L172.5 136.709L216 137.209Z" fill="#D9D9D9"/>
<path d="M222.177 103.336L166.812 103.671L167.023 104.968L222 104.709L222.177 103.336Z" fill="#BABFC5"/>
<path d="M195.088 34.1817C189.313 31.3092 185.061 28.8313 182.833 22.2552C181.476 18.103 181.843 13.5764 183.861 9.70093C186.141 5.27635 190.131 1.98079 194.908 0.58545C212.721 -4.50829 228.913 25.0467 198.073 34.6483L197.436 36.1059L196.528 33.7938L195.088 34.1817Z" fill="#84B446"/>
<path d="M185.622 64.5098C181.887 69.7363 172.287 70.1174 167.3 66.5585C164.622 64.6253 162.897 61.6373 162.575 58.3515C160.677 40.945 188.045 40.5144 187.242 62.476L185.622 64.5098Z" fill="#84B446"/>
<path d="M201.875 67.7938C203.96 43.8547 229.348 50.2178 226.76 66.9604C225.365 76.0008 210.882 76.9611 202.595 70.2852L201.875 67.7938Z" fill="#84B446"/>
<path d="M195.086 34.1818L196.526 33.7939L197.434 36.106C195.574 51.6048 195.326 58.5665 195.611 74.1913C197.524 71.9377 199.429 69.4006 201.874 67.7937L202.594 70.2851C200.269 72.5102 197.944 74.6001 195.964 77.1395L195.896 77.7847C195.551 81.5574 195.499 87.709 195.499 87.709H193.499C193.499 87.709 193.204 77.4253 193.166 72.9272C190.279 68.9775 189.236 67.802 185.621 64.5094L187.241 62.4757L193.054 67.8935C193.114 55.2214 193.549 46.7766 195.086 34.1818Z" fill="#73935A"/>
<path d="M1 135.709L227 137.709" stroke="#D4D8DD" stroke-width="2" stroke-linecap="round"/>
</g>
</svg>
