<svg width="181" height="143" viewBox="0 0 181 143" fill="none" xmlns="http://www.w3.org/2000/svg">
<g opacity="0.5">
<path d="M104.436 21.0952L13.2252 20.1288C8.11603 20.0747 4.26624 24.7587 5.30877 29.7607L27.3639 135.579C28.137 139.289 31.4065 141.947 35.1956 141.947H126.886C131.981 141.947 135.778 137.248 134.707 132.266L112.172 27.4138C111.387 23.7585 108.174 21.1348 104.436 21.0952Z" fill="#CACDD1"/>
<path d="M108.713 9.38867H20.0583C14.3451 9.38867 10.0778 14.6431 11.2497 20.2348L34.065 129.096C34.9386 133.265 38.6145 136.25 42.8736 136.25H130.551C136.232 136.25 140.492 131.051 139.375 125.48L117.537 16.6185C116.694 12.4141 113.001 9.38867 108.713 9.38867Z" fill="#FDFDFD" stroke="#D2D5D9" stroke-width="2" stroke-linecap="round"/>
<ellipse cx="3.41842" cy="3.0386" rx="3.41842" ry="3.0386" transform="matrix(-1 0 0 1 38.9824 16.6055)" fill="#AAB0B6"/>
<ellipse cx="3.41842" cy="3.0386" rx="3.41842" ry="3.0386" transform="matrix(-1 0 0 1 67.8496 16.6055)" fill="#AAB0B6"/>
<ellipse cx="3.41842" cy="3.0386" rx="3.41842" ry="3.0386" transform="matrix(-1 0 0 1 96.7148 16.6055)" fill="#AAB0B6"/>
<path d="M37.6973 20.5676C36.9773 21.7457 35.4386 22.1172 34.2605 21.3972C33.0824 20.6772 32.7109 19.1385 33.4309 17.9604L35.5641 19.264L37.6973 20.5676ZM38.348 14.7085L40.4812 16.0121L38.348 14.7085ZM35.5641 19.264L33.4309 17.9604L36.2148 13.4049L38.348 14.7085L40.4812 16.0121L37.6973 20.5676L35.5641 19.264ZM39.5202 9.76273L37.0288 9.97035L36.8908 8.31439L39.3822 8.10678L41.8735 7.89916L42.0115 9.55512L39.5202 9.76273ZM34.2237 2.59753L33.8529 5.06987L33.6148 5.03416L33.9857 2.56182L34.3565 0.0894797L34.5946 0.125186L34.2237 2.59753ZM27.5878 8.0716H30.0878V9.76837H27.5878H25.0878V8.0716H27.5878ZM29.4321 3.9304L31.1045 5.78863C30.4574 6.3711 30.0878 7.20089 30.0878 8.0716H27.5878H25.0878C25.0878 5.78346 26.059 3.60284 27.7597 2.07216L29.4321 3.9304ZM33.9857 2.56182L33.6148 5.03416C32.7074 4.89804 31.7866 5.17479 31.1045 5.78863L29.4321 3.9304L27.7597 2.07216C29.5521 0.459028 31.9718 -0.268226 34.3565 0.0894797L33.9857 2.56182ZM39.3822 8.10678L36.8908 8.31439C36.7529 6.65935 35.4953 5.31623 33.8529 5.06987L34.2237 2.59753L34.5946 0.125186C38.5298 0.715475 41.5431 3.93363 41.8735 7.89916L39.3822 8.10678ZM38.348 14.7085L36.2148 13.4049C36.8439 12.3755 37.129 11.1726 37.0288 9.97035L39.5202 9.76273L42.0115 9.55512C42.1999 11.8153 41.6639 14.0768 40.4812 16.0121L38.348 14.7085Z" fill="#D2D5D9"/>
<path d="M66.5645 20.5676C65.8445 21.7457 64.3058 22.1172 63.1277 21.3972C61.9495 20.6772 61.5781 19.1385 62.2981 17.9604L64.4313 19.264L66.5645 20.5676ZM67.2152 14.7085L69.3484 16.0121L67.2152 14.7085ZM64.4313 19.264L62.2981 17.9604L65.082 13.4049L67.2152 14.7085L69.3484 16.0121L66.5645 20.5676L64.4313 19.264ZM68.3873 9.76273L65.896 9.97035L65.758 8.31439L68.2493 8.10678L70.7407 7.89916L70.8787 9.55512L68.3873 9.76273ZM63.0909 2.59753L62.7201 5.06987L62.482 5.03416L62.8529 2.56182L63.2237 0.0894797L63.4618 0.125186L63.0909 2.59753ZM56.455 8.0716H58.955V9.76837H56.455H53.955V8.0716H56.455ZM58.2993 3.9304L59.9717 5.78863C59.3245 6.3711 58.955 7.20089 58.955 8.0716H56.455H53.955C53.955 5.78346 54.9262 3.60284 56.6269 2.07216L58.2993 3.9304ZM62.8529 2.56182L62.482 5.03416C61.5746 4.89804 60.6538 5.17479 59.9717 5.78863L58.2993 3.9304L56.6269 2.07216C58.4193 0.459028 60.839 -0.268226 63.2237 0.0894797L62.8529 2.56182ZM68.2493 8.10678L65.758 8.31439C65.6201 6.65935 64.3625 5.31623 62.7201 5.06987L63.0909 2.59753L63.4618 0.125186C67.397 0.715475 70.4102 3.93363 70.7407 7.89916L68.2493 8.10678ZM67.2152 14.7085L65.082 13.4049C65.7111 12.3755 65.9962 11.1726 65.896 9.97035L68.3873 9.76273L70.8787 9.55512C71.0671 11.8153 70.5311 14.0768 69.3484 16.0121L67.2152 14.7085Z" fill="#D2D5D9"/>
<path d="M95.4297 20.5676C94.7098 21.7457 93.171 22.1172 91.9929 21.3972C90.8148 20.6772 90.4434 19.1385 91.1633 17.9604L93.2965 19.264L95.4297 20.5676ZM96.0804 14.7085L98.2136 16.0121L96.0804 14.7085ZM93.2965 19.264L91.1633 17.9604L93.9472 13.4049L96.0804 14.7085L98.2136 16.0121L95.4297 20.5676L93.2965 19.264ZM97.2526 9.76273L94.7612 9.97035L94.6232 8.31439L97.1146 8.10678L99.6059 7.89916L99.7439 9.55512L97.2526 9.76273ZM91.9561 2.59753L91.5853 5.06987L91.3473 5.03416L91.7181 2.56182L92.089 0.0894797L92.327 0.125186L91.9561 2.59753ZM85.3202 8.0716H87.8202V9.76837H85.3202H82.8202V8.0716H85.3202ZM87.1646 3.9304L88.837 5.78863C88.1898 6.3711 87.8202 7.20089 87.8202 8.0716H85.3202H82.8202C82.8202 5.78346 83.7914 3.60284 85.4921 2.07216L87.1646 3.9304ZM91.7181 2.56182L91.3473 5.03416C90.4398 4.89804 89.519 5.17479 88.837 5.78863L87.1646 3.9304L85.4921 2.07216C87.2845 0.459028 89.7043 -0.268226 92.089 0.0894797L91.7181 2.56182ZM97.1146 8.10678L94.6232 8.31439C94.4853 6.65935 93.2277 5.31623 91.5853 5.06987L91.9561 2.59753L92.327 0.125186C96.2623 0.715475 99.2755 3.93363 99.6059 7.89916L97.1146 8.10678ZM96.0804 14.7085L93.9472 13.4049C94.5763 12.3755 94.8614 11.1726 94.7612 9.97035L97.2526 9.76273L99.7439 9.55512C99.9323 11.8153 99.3963 14.0768 98.2136 16.0121L96.0804 14.7085Z" fill="#D2D5D9"/>
<path d="M83.7295 52.6885H62.347C57.3189 52.6885 53.5434 57.2721 54.4989 62.2086L58.2389 81.5323C58.9671 85.2947 62.261 88.0122 66.0932 88.0122H87.6759C92.7378 88.0122 96.5272 83.3703 95.514 78.4108L91.5661 59.0871C90.8053 55.363 87.5306 52.6885 83.7295 52.6885Z" fill="#C8CBD0" stroke="#C8CBD0" stroke-width="2" stroke-linecap="round"/>
<path d="M85.2491 50.7891H63.8665C58.8384 50.7891 55.0629 55.3727 56.0184 60.3092L59.7585 79.6329C60.4867 83.3952 63.7806 86.1128 67.6127 86.1128H89.1954C94.2573 86.1128 98.0467 81.4708 97.0335 76.5114L93.0857 57.1877C92.3248 53.4636 89.0501 50.7891 85.2491 50.7891Z" fill="#D97C44" stroke="#D97C44" stroke-width="2" stroke-linecap="round"/>
<path d="M86.7686 48.8906H65.3861C60.358 48.8906 56.5825 53.4743 57.5379 58.4108L61.278 77.7345C62.0062 81.4968 65.3001 84.2143 69.1322 84.2143H90.715C95.7768 84.2143 99.5663 79.5724 98.5531 74.613L94.6052 55.2893C93.8444 51.5652 90.5696 48.8906 86.7686 48.8906Z" fill="#EC9460" stroke="#EC9460" stroke-width="2" stroke-linecap="round"/>
<path d="M68.6094 66.7421L76.189 73.2389C76.4052 73.4242 76.7323 73.3918 76.908 73.1677L87.6006 59.5254" stroke="white" stroke-width="6" stroke-linecap="round"/>
<path d="M49.6172 103.585H84.5611" stroke="#E6E8EB" stroke-width="3" stroke-linecap="round"/>
<path d="M52.6562 116.119H87.6001" stroke="#E6E8EB" stroke-width="3" stroke-linecap="round"/>
<path d="M158.41 36.9648L162.658 39.0836C164.942 40.1698 168.82 41.8521 170.733 43.2728C172.258 44.0279 173.686 44.6622 175.079 45.6429L138.668 115.906C136.897 114.808 135.659 114.292 134.867 112.34C131.964 111.035 129.377 112.845 127.371 108.146C125.476 109.475 123.931 107.969 122.057 106.996C126.03 100.223 130.479 90.9771 134.148 83.8394C142.126 68.1582 150.213 52.5327 158.41 36.9648Z" fill="#EEA374"/>
<path d="M158.41 36.9648L162.658 39.0836C158.837 45.4554 127.908 104.837 127.371 108.146C125.476 109.475 123.931 107.969 122.057 106.996C126.03 100.223 130.479 90.9771 134.148 83.8394C142.126 68.1582 150.213 52.5327 158.41 36.9648Z" fill="#EC9763"/>
<path d="M170.734 43.2734C172.259 44.0285 173.686 44.6628 175.079 45.6436L138.668 115.907C136.898 114.808 135.659 114.293 134.867 112.34C135.773 111.543 169.158 47.013 170.734 43.2734Z" fill="#E18852"/>
<path d="M162.834 27.8992C164.366 25.5172 165.608 23.5955 168.648 22.9288C171.551 22.2974 174.584 22.8929 177.033 24.5746C181.722 27.8366 181.898 32.2879 179.411 36.9791C178.177 39.311 175.911 43.3047 175.079 45.6435C173.686 44.6627 172.259 44.0284 170.734 43.2734C168.82 41.8527 164.943 40.1704 162.659 39.0842L158.41 36.9654C160.128 33.7473 161.394 31.245 162.834 27.8992Z" fill="#FDCFA4"/>
<path d="M162.834 27.8992C164.366 25.5172 165.609 23.5955 168.649 22.9288C171.551 22.2974 174.585 22.8929 177.034 24.5746C181.722 27.8366 181.899 32.2879 179.412 36.9791C175.532 34.3195 164.659 29.5456 162.834 27.8992Z" fill="#EEA374"/>
<path d="M122.058 106.996C123.932 107.969 125.477 109.476 127.372 108.146C129.378 112.845 131.965 111.035 134.868 112.34C135.66 114.292 136.898 114.808 138.669 115.907C135.079 118.902 131.56 121.42 127.78 124.162C125.75 125.772 123.205 127.396 121.025 128.86L121.281 120.876C121.412 116.344 121.419 111.459 122.058 106.996Z" fill="#F9C59E"/>
<path d="M121.281 120.876C123.758 121.438 125.623 122.811 127.78 124.162C125.75 125.772 123.205 127.396 121.025 128.86L121.281 120.876Z" fill="#4D5256"/>
<path d="M1 141.947L164.325 141.947" stroke="#D4D8DD" stroke-width="2" stroke-linecap="round"/>
</g>
</svg>
