<svg width="100" height="100" viewBox="0 0 100 100" fill="none" xmlns="http://www.w3.org/2000/svg">
<path d="M23.5558 33.0079H76.444V76.1061C76.444 78.6665 74.3683 80.7423 71.811 80.7423H66.5136V93.8678C66.5136 97.201 63.855 99.9024 60.5731 99.9024C57.2829 99.9024 54.6282 97.201 54.6282 93.8678V80.7423H45.3761V93.8678C45.3761 97.201 42.7122 99.9024 39.4306 99.9024C36.1495 99.9024 33.4858 97.201 33.4858 93.8678V80.7423H28.1931C25.6353 80.7423 23.5556 78.6665 23.5556 76.1061L23.5558 33.0079ZM13.1915 32.6561C9.87627 32.6561 7.19092 35.3833 7.19092 38.7499V62.5657C7.19092 65.9284 9.87627 68.6602 13.1915 68.6602C16.5073 68.6602 19.1921 65.9284 19.1921 62.5657V38.7499C19.1921 35.3833 16.5073 32.6561 13.1915 32.6561ZM76.4442 28.6649H23.5558C24.2085 21.1302 29.0962 14.6462 36.1323 10.8919L31.1038 3.50828C30.4257 2.51257 30.6815 1.15398 31.6792 0.47605C32.6757 -0.20188 34.0315 0.0559328 34.713 1.05085L40.1937 9.10398C43.2323 8.0532 46.5308 7.44988 49.9999 7.44988C53.4731 7.44988 56.7718 8.0532 59.8103 9.10535L65.2909 1.05378C65.964 0.0561281 67.3241 -0.201684 68.3206 0.476245C69.3183 1.15417 69.5741 2.51277 68.896 3.50847L63.8716 10.8921C70.9075 14.644 75.7919 21.128 76.4442 28.6649ZM41.7704 18.4268C41.7704 16.811 40.462 15.5005 38.8468 15.5005C37.2274 15.5005 35.919 16.811 35.919 18.4268C35.919 20.0419 37.2317 21.3518 38.8468 21.3518C40.4618 21.3518 41.7704 20.0419 41.7704 18.4268ZM64.4515 18.4268C64.4515 16.811 63.1386 15.5005 61.5237 15.5005C59.9044 15.5005 58.5999 16.811 58.5999 18.4268C58.5999 20.0419 59.9044 21.3518 61.5237 21.3518C63.1388 21.3518 64.4515 20.0419 64.4515 18.4268ZM86.8124 32.6477C83.5007 32.6477 80.8077 35.379 80.8077 38.7458V62.57C80.8077 65.9368 83.5007 68.6688 86.8124 68.6688C90.1284 68.6688 92.8087 65.937 92.8087 62.57V38.7458C92.8089 35.379 90.1284 32.6477 86.8124 32.6477Z" fill="white"/>
</svg>
