<svg width="100" height="100" viewBox="0 0 100 100" fill="none" xmlns="http://www.w3.org/2000/svg">
<path fill-rule="evenodd" clip-rule="evenodd" d="M65.3544 15.9644C68.9998 11.7394 71.457 5.8549 70.7846 0C65.5314 0.2 59.176 3.35573 55.4093 7.57568C52.0269 11.3206 49.0742 17.3045 49.868 23.0444C55.7279 23.4794 61.7091 20.1943 65.3544 15.9644ZM78.4949 53.125C78.6415 68.2598 92.3483 73.2944 92.5 73.3594C92.3888 73.7144 90.3108 80.5331 85.2801 87.583C80.9269 93.673 76.4119 99.7382 69.2981 99.8682C62.3107 99.9932 60.0608 95.8984 52.0673 95.8984C44.0789 95.8984 41.5812 99.7377 34.968 99.9927C28.102 100.238 22.869 93.4039 18.4855 87.334C9.51617 74.9191 2.66533 52.2504 11.8672 36.9507C16.4378 29.3558 24.6032 24.5389 33.4714 24.4189C40.211 24.2939 46.5765 28.7646 50.6972 28.7646C54.8178 28.7646 62.5534 23.3897 70.6834 24.1797C74.0861 24.3147 83.6419 25.4943 89.7748 34.0991C89.2793 34.3941 78.3736 40.4752 78.4949 53.125Z" fill="white"/>
</svg>
