<svg width="64" height="64" viewBox="0 0 64 64" fill="none" xmlns="http://www.w3.org/2000/svg">
<path d="M60.1664 25.5002H60.1205C60.1456 27.498 60.1664 30.2703 60.1664 32.0002V37.3333C60.1664 42.3191 60.17 46.2097 59.7631 49.2375C59.3503 52.3084 58.4906 54.7156 56.6039 56.6028C54.7171 58.49 52.3106 59.35 49.2406 59.7629C46.2135 60.17 42.3236 60.1663 37.3392 60.1663H26.6761C21.6916 60.1663 17.8019 60.17 14.7748 59.7629C11.7045 59.35 9.29732 58.4901 7.41052 56.6028C5.52397 54.7157 4.66507 52.3083 4.25232 49.2375C3.84535 46.2097 3.84802 42.3191 3.84802 37.3333V32.0002C3.84802 30.2978 3.82954 27.5087 3.8363 25.5002H3.83337V21.2678L3.83923 21.2024C4.16044 17.5294 4.97474 14.7391 7.25623 12.6497C9.23661 10.8361 11.7736 10.0556 15.0443 9.69653V7.17896C15.0446 5.20974 16.7453 3.83339 18.5599 3.83325C20.3746 3.83325 22.0763 5.20966 22.0765 7.17896V9.38403C23.4741 9.37174 24.9879 9.37134 26.6244 9.37134H37.3763C39.0129 9.37134 40.5265 9.37174 41.9242 9.38403V7.17896C41.9245 5.20986 43.625 3.83325 45.4398 3.83325C47.2548 3.83328 48.9552 5.20975 48.9554 7.17896V9.69653C52.1103 10.0428 54.5821 10.781 56.5306 12.4602L56.7435 12.6497L56.9535 12.8469C59.076 14.9137 59.8493 17.644 60.1605 21.2024L60.1664 21.2678V25.5002Z" stroke="#FFFCFC" stroke-width="3"/>
<path d="M18.5602 5.33325C19.6736 5.33325 20.5762 6.15981 20.5762 7.17941V10.9035C22.3644 10.8717 24.3688 10.8717 26.6241 10.8717H37.376C39.6312 10.8717 41.6358 10.8717 43.424 10.9035V7.17941C43.424 6.15981 44.3264 5.33325 45.4398 5.33325C46.5534 5.33325 47.4558 6.15981 47.4558 7.17941V11.0668C51.3248 11.3505 53.8646 12.0468 55.7307 13.7556C57.5966 15.4644 58.3568 17.7903 58.6667 21.3333V23.9999H5.33337V21.3333C5.64319 17.7903 6.40351 15.4644 8.26948 13.7556C10.1355 12.0468 12.6753 11.3505 16.5442 11.0668V7.17941C16.5442 6.15981 17.4468 5.33325 18.5602 5.33325Z" fill="#FF3C00"/>
<path d="M58.6666 37.3333V32C58.6666 29.7627 58.6328 25.7741 58.5984 24H5.34894C5.31454 25.7741 5.34835 29.7627 5.34835 32V37.3333C5.34835 47.3899 5.34835 52.4184 8.47166 55.5424C11.595 58.6667 16.6219 58.6667 26.6757 58.6667H37.3394C47.393 58.6667 52.42 58.6667 55.5434 55.5424C58.6666 52.4184 58.6666 47.3899 58.6666 37.3333Z" fill="white"/>
<path d="M48 44C48 46.2091 46.2091 48 44 48C41.7909 48 40 46.2091 40 44C40 41.7909 41.7909 40 44 40C46.2091 40 48 41.7909 48 44Z" fill="#FF3C00"/>
</svg>
