<svg width="64" height="64" viewBox="0 0 64 64" fill="none" xmlns="http://www.w3.org/2000/svg">
<path d="M53.3333 40.0005C53.3333 51.3458 46.3517 56.3242 40.9568 58.0031C40.7322 58.073 40.5226 58.0781 40.336 58.0338C39.5661 57.8511 39.1845 56.8269 39.7384 56.0309C42.0861 52.657 44.8 47.5095 44.8 42.6671C44.8 37.4655 40.4157 31.3245 36.9922 27.5367C36.2096 26.6709 34.8445 27.2437 34.8018 28.4103C34.6602 32.2749 34.0504 37.4453 31.4208 41.4975C30.9976 42.1498 30.0992 42.2037 29.6168 41.5938C28.7952 40.5546 27.9736 39.2711 27.152 38.257C26.7093 37.7109 25.9094 37.7034 25.3989 38.1866C23.4086 40.0711 20.6222 43.0101 20.6222 46.6671C20.6222 49.1469 21.5829 51.7466 22.6668 53.8381C23.206 54.8786 22.3908 56.1106 21.3814 55.8919C21.2744 55.8687 21.1652 55.8293 21.0552 55.7717C16.3015 53.277 10.6666 48.2234 10.6666 40.0005C10.6666 31.6101 22.1607 19.9867 26.5494 9.00557C27.2418 7.2728 29.3762 6.45856 30.8605 7.58933C39.8504 14.4375 53.3333 27.6754 53.3333 40.0005Z" fill="#FF9600"/>
<path d="M20.6224 46.6678C20.6224 49.1475 21.5831 51.7473 22.667 53.839C23.2062 54.8793 21.5094 55.7187 20.5 55.5C21.7851 56.9408 32.5 61 41.5 58.5C40.7301 58.3173 39.1848 56.8275 39.7387 56.0318C42.0864 52.6577 44.8003 47.5102 44.8003 42.6678C44.8003 37.4662 40.416 31.3251 36.9926 27.5374C36.2099 26.6715 34.8446 27.2446 34.8019 28.411C34.6606 32.2755 34.0507 37.4459 31.4211 41.4982C30.9979 42.1505 30.0992 42.2043 29.6171 41.5945C28.7955 40.5555 27.9736 39.2718 27.152 38.2577C26.7096 37.7115 25.9097 37.7041 25.3992 38.1873C23.4089 40.0718 20.6224 43.0107 20.6224 46.6678Z" fill="#FEC800"/>
<path d="M25.1569 8.44849C26.138 5.99403 29.3337 4.54072 31.7692 6.39575C36.3326 9.87202 42.0519 14.98 46.6461 20.8127C51.2091 26.6059 54.8335 33.3292 54.8336 40.0002C54.8336 46.005 52.9762 50.4339 50.3151 53.593C47.6736 56.7288 44.3128 58.5302 41.403 59.4358L41.3453 59.4534L41.2867 59.4661C37.3093 60.3637 34.0846 60.7597 30.819 60.4153C27.5528 60.0707 24.3577 58.9979 20.4127 57.1272L20.358 57.0999C15.3635 54.4788 9.16663 49.0178 9.16663 40.0002C9.16667 37.5821 9.98857 35.0484 11.1735 32.5247C12.3644 29.9881 13.9841 27.3352 15.6998 24.6643C19.1822 19.2432 23.0318 13.7657 25.1569 8.44849Z" stroke="white" stroke-width="3"/>
</svg>
