<svg width="100" height="100" viewBox="0 0 100 100" fill="none" xmlns="http://www.w3.org/2000/svg">
<path d="M50 81.25C45.0966 81.25 37.61 74.7375 32.75 69.3572C37.1875 66.4962 44.58 62.5 50 62.5C55.42 62.5 62.8125 66.4962 67.25 69.3572C62.39 74.7375 54.9034 81.25 50 81.25Z" fill="white"/>
<path d="M65.1275 60.8887C64.8797 60.7591 64.6066 60.6369 64.3525 60.5072C65.2005 59.2509 65.6445 57.7656 65.625 56.25C65.625 52.7984 63.5263 50 60.9375 50C58.3487 50 56.25 52.7984 56.25 56.25C56.2547 56.5879 56.2802 56.9252 56.3263 57.26C55.274 56.9575 54.2051 56.7161 53.125 56.5369V51.6419C53.125 45.6697 56.7025 40.625 60.9375 40.625C65.1725 40.625 68.75 45.6697 68.75 51.6419C68.8046 53.3483 68.5117 55.0479 67.8889 56.6376C67.2662 58.2272 66.3267 59.6736 65.1275 60.8887Z" fill="white"/>
<path d="M39.0625 40.625C43.2975 40.625 46.875 45.6697 46.875 51.6419V56.5369C45.7949 56.7161 44.726 56.9575 43.6738 57.26C43.7198 56.9252 43.7453 56.5879 43.75 56.25C43.75 52.7984 41.6513 50 39.0625 50C36.4737 50 34.375 52.7984 34.375 56.25C34.3555 57.7656 34.7995 59.2509 35.6475 60.5072C35.3934 60.6369 35.1203 60.7591 34.8725 60.8887C33.6733 59.6736 32.7338 58.2272 32.1111 56.6376C31.4883 55.0479 31.1954 53.3483 31.25 51.6419C31.25 45.6697 34.8275 40.625 39.0625 40.625Z" fill="white"/>
<path fill-rule="evenodd" clip-rule="evenodd" d="M88.9096 92.8975C87.371 92.2865 85.9736 91.3675 84.8031 90.1969C83.6325 89.0264 82.7135 87.629 82.1025 86.0904C81.4915 84.5519 81.2014 82.9047 81.25 81.25V43.75C81.25 35.462 77.9576 27.5134 72.0971 21.6529C66.2366 15.7924 58.288 12.5 50 12.5C41.712 12.5 33.7634 15.7924 27.9029 21.6529C22.0424 27.5134 18.75 35.462 18.75 43.75V81.25C18.7986 82.9047 18.5085 84.5519 17.8975 86.0904C17.2865 87.629 16.3675 89.0264 15.1969 90.1969C14.0264 91.3675 12.629 92.2865 11.0904 92.8975C9.7731 93.4206 8.37614 93.7085 6.963 93.75H93.037C91.6239 93.7085 90.2269 93.4206 88.9096 92.8975ZM75 51.6419C75.0742 56.186 73.5377 60.6098 70.6628 64.1297C72.4412 65.2812 73.5969 66.1347 73.75 66.25C74.085 66.5012 74.3661 66.8171 74.5766 67.1791C74.7871 67.541 74.9228 67.9415 74.9755 68.3569C75.0282 68.7723 74.9969 69.194 74.8834 69.5971C74.77 70.0001 74.5767 70.3762 74.315 70.7031C72.94 72.4212 60.5722 87.5 50 87.5C39.4278 87.5 27.06 72.4212 25.685 70.7031C25.4234 70.3763 25.2302 70.0002 25.1168 69.5972C25.0033 69.1943 24.972 68.7726 25.0247 68.3573C25.0774 67.942 25.2129 67.5415 25.4234 67.1796C25.6338 66.8177 25.9148 66.5018 26.2497 66.2506C26.4031 66.1347 27.5597 65.2816 29.3372 64.1297C26.4625 60.6097 24.9261 56.186 25 51.6419C25 42.1203 31.3088 34.375 39.0625 34.375C41.2784 34.4482 43.4406 35.0757 45.3514 36.2003C47.2621 37.3249 48.8604 38.9107 50 40.8125C51.1396 38.9107 52.7379 37.3249 54.6486 36.2003C56.5594 35.0757 58.7216 34.4482 60.9375 34.375C68.6912 34.375 75 42.1203 75 51.6419Z" fill="white"/>
<path fill-rule="evenodd" clip-rule="evenodd" d="M93.75 93.75C93.5121 93.757 93.2743 93.757 93.037 93.75H93.75ZM6.25 93.75H6.963C6.72569 93.757 6.48792 93.757 6.25 93.75Z" fill="black"/>
<path d="M6.25 88C7.08514 88.0556 7.92252 87.9321 8.70602 87.6376C9.48952 87.3432 10.201 86.8847 10.7929 86.2929C11.3847 85.701 11.8432 84.9895 12.1376 84.206C12.4321 83.4225 12.5556 82.5851 12.5 81.75V44.25C12.5 34.3044 16.4509 24.7661 23.4835 17.7335C30.5161 10.7009 40.0544 6.75 50 6.75C59.9456 6.75 69.4839 10.7009 76.5165 17.7335C83.5491 24.7661 87.5 34.3044 87.5 44.25V81.75C87.446 82.5847 87.5707 83.4214 87.8657 84.2041C88.1607 84.9869 88.6193 85.6977 89.2108 86.2892C89.8023 86.8807 90.5131 87.3393 91.2959 87.6343C92.0786 87.9293 92.9153 88.054 93.75 88" stroke="white" stroke-width="2"/>
</svg>
