<svg width="64" height="64" viewBox="0 0 64 64" fill="none" xmlns="http://www.w3.org/2000/svg">
<path d="M18.5325 3.83325C19.5355 3.83325 20.1328 3.83164 20.7141 3.88599C23.1506 4.11383 25.4619 5.0714 27.3459 6.63306H27.3469C27.7963 7.00565 28.2169 7.42971 28.926 8.13892L30.3938 9.60571C32.6291 11.841 33.5515 12.7449 34.6282 13.344L34.8606 13.469C35.4065 13.7524 35.9804 13.9799 36.5725 14.1487C37.7573 14.4864 39.0483 14.5002 42.2092 14.5002H43.2053C46.6756 14.5002 49.4192 14.4969 51.5745 14.7678C53.7673 15.0435 55.5598 15.6238 57.0198 16.9368C57.2686 17.1606 57.5058 17.3975 57.7297 17.6467C59.0428 19.1066 59.623 20.8992 59.8987 23.092C60.1696 25.2474 60.1663 27.991 60.1663 31.4612V37.3333C60.1663 42.3191 60.17 46.2097 59.7629 49.2375C59.35 52.3085 58.4901 54.7157 56.6028 56.6028C54.7157 58.4901 52.3085 59.35 49.2375 59.7629C46.2097 60.17 42.3191 60.1663 37.3333 60.1663H26.6663C21.6808 60.1663 17.7907 60.17 14.7629 59.7629C11.6919 59.35 9.28399 58.4901 7.39673 56.6028C5.5096 54.7157 4.65043 52.3084 4.23755 49.2375C3.83046 46.2097 3.83325 42.3191 3.83325 37.3333V18.5325C3.83325 16.2475 3.82673 14.8971 4.04419 13.7444C4.97278 8.82273 8.82273 4.97278 13.7444 4.04419C14.8971 3.82673 16.2475 3.83325 18.5325 3.83325Z" fill="#1CB0F6" stroke="white" stroke-width="3"/>
<path d="M32.6667 26.6667C32.6667 25.5622 33.5622 24.6667 34.6667 24.6667H48.0001C49.1046 24.6667 50.0001 25.5622 50.0001 26.6667C50.0001 27.7713 49.1046 28.6667 48.0001 28.6667H34.6667C33.5622 28.6667 32.6667 27.7713 32.6667 26.6667Z" fill="white"/>
</svg>
