<svg width="64" height="64" viewBox="0 0 64 64" fill="none" xmlns="http://www.w3.org/2000/svg">
<g clip-path="url(#clip0_190_2)">
<path d="M7.22457 21.3623C8.39383 20.2349 9.83619 19.4701 11.665 18.7794C13.4764 18.0952 15.7948 17.4393 18.7648 16.5973C21.7344 15.7554 24.0519 15.0971 25.9527 14.7288C27.872 14.3568 29.5012 14.2509 31.0883 14.5968C33.4393 15.1094 35.5862 16.3071 37.2563 18.0395C38.3836 19.2089 39.1485 20.6512 39.8392 22.48C40.5233 24.2912 41.1789 26.6093 42.0208 29.5789L43.4755 34.7109C44.3175 37.6806 44.9757 39.998 45.344 41.8988C45.7159 43.8181 45.8218 45.4474 45.4759 47.0344C44.9634 49.3854 43.7645 51.5308 42.0322 53.2008L42.0336 53.2011C41.8043 53.4223 41.5627 53.6298 41.3086 53.8271L41.3099 53.8274C40.1559 54.7246 38.7573 55.3767 37.0364 55.9889C35.3207 56.5992 33.1748 57.2068 30.4939 57.967C27.5238 58.8089 25.2055 59.4668 23.3046 59.8351C21.3854 60.207 19.7565 60.3138 18.1695 59.9679C15.8184 59.4554 13.672 58.2563 12.0018 56.5238C10.8746 55.3546 10.11 53.9128 9.41939 52.0842C8.7353 50.2729 8.0793 47.9544 7.23731 44.9845L5.7823 39.8538C5.53841 38.9935 5.31118 38.1894 5.10267 37.4402C3.89165 33.0885 3.20051 30.1943 3.78137 27.5295C4.2938 25.1785 5.49235 23.0324 7.22457 21.3623Z" fill="#53801B" stroke="white" stroke-width="3"/>
<path fill-rule="evenodd" clip-rule="evenodd" d="M55.5449 28.5743L54.1643 33.7261C52.5531 39.7397 51.7473 42.7463 49.9209 44.6965C48.4787 46.2362 46.6123 47.3138 44.5579 47.7927C44.3011 47.8527 44.0406 47.8989 43.7734 47.9317C41.3331 48.2327 38.3558 47.4349 32.9355 45.9826C26.9219 44.3711 23.9151 43.5655 21.9651 41.7391C20.4253 40.297 19.3477 38.4306 18.8687 36.3759C18.262 33.7738 19.0676 30.7671 20.679 24.7536L22.0593 19.602C22.291 18.7374 22.5062 17.9343 22.71 17.1882C23.9235 12.7454 24.739 10.3012 26.3028 8.63157C27.7449 7.09178 29.6113 6.01424 31.6659 5.5352C34.2678 4.92848 37.2747 5.73413 43.2883 7.34546C49.3017 8.9568 52.3086 9.76245 54.2587 11.5889C55.7985 13.0311 56.8761 14.8974 57.355 16.952C57.9617 19.5541 57.1561 22.5608 55.5449 28.5743ZM29.4731 26.149C29.759 25.082 30.8558 24.4489 31.9227 24.7347L44.8017 28.1858C45.8686 28.4717 46.5017 29.5682 46.2158 30.6351C45.9299 31.7021 44.8334 32.3351 43.7665 32.0493L30.8873 28.5983C29.8203 28.3125 29.1873 27.2159 29.4731 26.149ZM27.4017 33.8754C27.6875 32.8085 28.7841 32.1754 29.851 32.4613L37.5785 34.5319C38.6454 34.8178 39.2785 35.9143 38.9926 36.9813C38.7067 38.0482 37.6102 38.6815 36.5433 38.3957L28.8158 36.325C27.7489 36.0391 27.1155 34.9423 27.4017 33.8754Z" fill="#89E219"/>
<path d="M29.4731 26.149C29.759 25.082 30.8558 24.4489 31.9227 24.7347L44.8017 28.1858C45.8686 28.4717 46.5017 29.5682 46.2158 30.6351C45.9299 31.7021 44.8334 32.3351 43.7665 32.0493L30.8873 28.5983C29.8203 28.3125 29.1873 27.2159 29.4731 26.149Z" fill="white"/>
<path d="M27.4017 33.8754C27.6875 32.8085 28.7841 32.1754 29.851 32.4613L37.5785 34.5319C38.6454 34.8178 39.2785 35.9143 38.9926 36.9813C38.7067 38.0482 37.6102 38.6815 36.5433 38.3957L28.8158 36.325C27.7489 36.0391 27.1155 34.9423 27.4017 33.8754Z" fill="white"/>
<path d="M31.325 4.07446C32.9067 3.70561 34.5373 3.78798 36.4617 4.13208C38.3677 4.4729 40.6947 5.09774 43.6765 5.89673C46.658 6.69565 48.9854 7.31804 50.8064 7.97583C52.6451 8.64002 54.0984 9.38402 55.2839 10.4944C57.0402 12.1393 58.2699 14.268 58.8162 16.6116C59.1849 18.1934 59.1026 19.824 58.7585 21.7483C58.4177 23.6542 57.7927 25.9807 56.9939 28.9622L55.613 34.1145C54.8142 37.0961 54.1918 39.4234 53.5339 41.2444C52.8697 43.0831 52.1257 44.5364 51.0154 45.7219C49.3705 47.4781 47.2415 48.7059 44.8982 49.2522L44.8992 49.2532C44.589 49.3257 44.2752 49.38 43.9558 49.4192L43.9568 49.4202C42.506 49.5991 40.9709 49.4424 39.1794 49.0862C37.3934 48.731 35.2393 48.1531 32.5476 47.4319C29.5658 46.6328 27.2378 46.0096 25.4167 45.3518C23.5782 44.6876 22.1247 43.9445 20.9392 42.8342C19.1829 41.1893 17.9544 39.0596 17.408 36.7161C17.0392 35.1344 17.1215 33.5044 17.4656 31.5803C17.8064 29.6743 18.4312 27.3473 19.2302 24.3655L20.6101 19.2141C20.8416 18.3504 21.0585 17.5434 21.2634 16.7932C22.4536 12.4358 23.3433 9.59632 25.2078 7.60571C26.8526 5.84955 28.9816 4.6209 31.325 4.07446Z" stroke="white" stroke-width="3"/>
</g>
<defs>
<clipPath id="clip0_190_2">
<rect width="64" height="64" fill="white"/>
</clipPath>
</defs>
</svg>
