<svg width="64" height="64" viewBox="0 0 64 64" fill="none" xmlns="http://www.w3.org/2000/svg">
<path fill-rule="evenodd" clip-rule="evenodd" d="M32 5.33325C20.9786 5.33325 15.4679 5.33325 13.862 8.79773C13.724 9.09555 13.6076 9.40488 13.5138 9.72285C12.4229 13.4221 16.3195 17.7095 24.1128 26.2846L29.3334 31.9999H34.6667L39.8872 26.2846C47.6806 17.7095 51.5771 13.4221 50.4862 9.72285C50.3926 9.40488 50.276 9.09555 50.1379 8.79773C48.532 5.33325 43.0214 5.33325 32 5.33325Z" fill="#1CB0F6"/>
<path d="M13.862 55.2021C15.4679 58.6667 20.9786 58.6667 32 58.6667C43.0214 58.6667 48.532 58.6667 50.1379 55.2021C50.276 54.9043 50.3926 54.5949 50.4862 54.2771C51.5771 50.5779 47.6806 46.2904 39.8872 37.7155L34.6667 32H29.3334L24.1128 37.7155C16.3195 46.2904 12.4229 50.5779 13.5138 54.2771C13.6076 54.5949 13.724 54.9043 13.862 55.2021Z" fill="#1CCFF6"/>
<path d="M32.0004 3.83325C37.4593 3.83325 41.7258 3.82969 44.8168 4.28247C47.8856 4.73204 50.3584 5.70753 51.4984 8.16626C51.6677 8.53124 51.8108 8.90983 51.9252 9.2981L51.9896 9.53735C52.6084 12.0032 51.552 14.4401 49.7504 17.0315C47.8689 19.7377 44.8636 23.0393 40.9974 27.2932L40.9945 27.2961L36.6976 31.9993L40.9945 36.7034L40.9974 36.7063C44.8637 40.9603 47.8688 44.2618 49.7504 46.968C51.6102 49.6431 52.6765 52.1539 51.9252 54.7014C51.8108 55.0897 51.6677 55.4681 51.4984 55.8333C50.3584 58.2922 47.8857 59.2684 44.8168 59.718C41.7258 60.1708 37.4592 60.1663 32.0004 60.1663C26.5412 60.1663 22.2741 60.1708 19.183 59.718C16.114 59.2684 13.6413 58.2923 12.5013 55.8333C12.3321 55.468 12.19 55.0891 12.0756 54.7014H12.0746C11.3234 52.1539 12.3905 49.643 14.2504 46.968C16.1319 44.2619 19.1363 40.9601 23.0023 36.7063L23.0052 36.7034L27.3011 31.9993L23.0052 27.2961L23.0023 27.2932C19.1363 23.0394 16.1319 19.7377 14.2504 17.0315C12.3905 14.3564 11.3233 11.8457 12.0746 9.2981C12.189 8.91033 12.3321 8.53239 12.5013 8.16724C13.6413 5.70799 16.1139 4.73209 19.183 4.28247C22.2741 3.82965 26.5411 3.83325 32.0004 3.83325Z" stroke="white" stroke-width="3"/>
</svg>
