<svg width="100" height="100" viewBox="0 0 100 100" fill="none" xmlns="http://www.w3.org/2000/svg">
<g clip-path="url(#clip0_208_2)">
<path fill-rule="evenodd" clip-rule="evenodd" d="M45.7293 52.1704C45.7544 62.1649 45.7845 79.146 45.8095 92.3438C63.8797 94.7874 81.9499 97.3065 99.99 100C99.99 84.2437 100.01 68.5562 99.99 53.5645C81.9048 53.5645 63.8246 52.1704 45.7293 52.1704ZM0 52.1753V86.1084C13.6291 87.9474 27.2581 89.705 40.8622 91.7139C40.8872 78.5861 40.8521 65.4545 40.8521 52.3267C27.2331 52.3517 13.619 52.1303 0 52.1753ZM0 14.2163V48.0542C13.6291 48.0892 27.2581 47.8829 40.8872 47.8979C40.8772 34.8001 40.8772 21.7184 40.8622 8.62061C27.2231 10.3247 13.584 12.1275 0 14.2163ZM100 47.3584C81.9398 47.4283 63.8797 47.7038 45.8095 47.7588C45.7995 34.4461 45.7995 21.1493 45.8095 7.84668C63.8446 5.09318 81.9198 2.5036 99.99 0C100 15.7913 99.99 31.5671 100 47.3584Z" fill="white"/>
</g>
<defs>
<clipPath id="clip0_208_2">
<rect width="100" height="100" fill="white"/>
</clipPath>
</defs>
</svg>
