<svg width="150" height="150" viewBox="0 0 150 150" fill="none" xmlns="http://www.w3.org/2000/svg">
<path d="M32 42.4569C32 35.6927 36.5273 29.7653 43.0532 27.9855L85.062 16.5285C86.3483 16.1777 87.6755 16 89.0088 16H128.704C138.331 16 145.466 24.9403 143.33 34.3277L136.75 63.25L126.737 105.462C125.133 112.225 119.093 117 112.142 117H47C38.7157 117 32 110.284 32 102V42.4569Z" fill="#271307"/>
<path d="M125 76.5V95C125 111.569 111.569 125 95 125H55C38.4315 125 25 111.569 25 95V55C25 38.4315 38.4315 25 55 25H86.5" stroke="#ED9B6D" stroke-width="18" stroke-linecap="round"/>
<path d="M124.679 34.9106L81.5091 89.4881C79.5693 91.9405 75.8761 92.0354 73.8187 89.6808L56 70" stroke="white" stroke-width="14" stroke-linecap="round"/>
<foreignObject x="74" y="88" width="80" height="60"><div xmlns="http://www.w3.org/1999/xhtml" style="backdrop-filter:blur(5px);clip-path:url(#bgblur_0_211_2_clip_path);height:100%;width:100%"></div></foreignObject><rect data-figma-bg-blur-radius="10" x="84" y="98" width="60" height="40" rx="8" fill="white"/>
<path d="M94.6697 113.364L97.1733 118.131L99.739 113.364H103.619L99.668 120.182L103.725 127H99.8633L97.1733 122.286L94.5277 127H90.6214L94.6697 120.182L90.7635 113.364H94.6697ZM112.807 127.249C111.872 127.243 110.969 127.086 110.099 126.778C109.235 126.47 108.46 125.97 107.773 125.278C107.087 124.585 106.542 123.668 106.14 122.526C105.743 121.383 105.545 119.981 105.545 118.317C105.551 116.79 105.726 115.426 106.069 114.225C106.418 113.017 106.915 111.993 107.56 111.153C108.211 110.313 108.99 109.673 109.895 109.235C110.801 108.792 111.816 108.57 112.94 108.57C114.154 108.57 115.225 108.806 116.154 109.28C117.083 109.747 117.829 110.384 118.391 111.189C118.96 111.993 119.303 112.896 119.421 113.896H115.63C115.482 113.263 115.172 112.766 114.698 112.405C114.225 112.044 113.639 111.863 112.94 111.863C111.757 111.863 110.857 112.378 110.241 113.408C109.632 114.438 109.321 115.838 109.309 117.607H109.434C109.706 117.069 110.073 116.61 110.534 116.231C111.002 115.846 111.532 115.554 112.124 115.352C112.721 115.145 113.352 115.042 114.015 115.042C115.092 115.042 116.051 115.296 116.891 115.805C117.731 116.308 118.394 117.001 118.88 117.882C119.365 118.764 119.608 119.773 119.608 120.91C119.608 122.141 119.321 123.236 118.746 124.195C118.178 125.153 117.382 125.905 116.358 126.45C115.34 126.988 114.157 127.254 112.807 127.249ZM112.789 124.23C113.381 124.23 113.911 124.088 114.379 123.804C114.846 123.52 115.213 123.135 115.479 122.65C115.746 122.165 115.879 121.62 115.879 121.016C115.879 120.413 115.746 119.871 115.479 119.392C115.219 118.912 114.858 118.531 114.396 118.246C113.935 117.962 113.408 117.82 112.816 117.82C112.372 117.82 111.961 117.903 111.582 118.069C111.209 118.235 110.881 118.465 110.597 118.761C110.318 119.057 110.099 119.401 109.94 119.791C109.78 120.176 109.7 120.587 109.7 121.025C109.7 121.611 109.833 122.147 110.099 122.632C110.372 123.117 110.739 123.505 111.2 123.795C111.668 124.085 112.198 124.23 112.789 124.23ZM122.058 123.804V120.777L129.648 108.818H132.259V113.009H130.714L125.929 120.581V120.723H136.715V123.804H122.058ZM130.785 127V122.881L130.856 121.54V108.818H134.46V127H130.785Z" fill="#271307"/>
<defs>
<clipPath id="bgblur_0_211_2_clip_path" transform="translate(-74 -88)"><rect x="84" y="98" width="60" height="40" rx="8"/>
</clipPath></defs>
</svg>
