<svg width="150" height="150" viewBox="0 0 150 150" fill="none" xmlns="http://www.w3.org/2000/svg">
<path d="M32 42.4569C32 35.6927 36.5273 29.7653 43.0532 27.9855L85.062 16.5285C86.3483 16.1777 87.6755 16 89.0088 16H128.704C138.331 16 145.466 24.9403 143.33 34.3277L136.75 63.25L126.737 105.462C125.133 112.225 119.093 117 112.142 117H47C38.7157 117 32 110.284 32 102V42.4569Z" fill="#271307"/>
<path d="M125 76.5V95C125 111.569 111.569 125 95 125H55C38.4315 125 25 111.569 25 95V55C25 38.4315 38.4315 25 55 25H86.5" stroke="#ED9B6D" stroke-width="18" stroke-linecap="round"/>
<path d="M124.679 34.9106L81.5091 89.4881C79.5693 91.9405 75.8761 92.0354 73.8187 89.6808L56 70" stroke="white" stroke-width="14" stroke-linecap="round"/>
<foreignObject x="71" y="90" width="85" height="65"><div xmlns="http://www.w3.org/1999/xhtml" style="backdrop-filter:blur(5px);clip-path:url(#bgblur_0_214_16_clip_path);height:100%;width:100%"></div></foreignObject><rect data-figma-bg-blur-radius="10" x="81" y="100" width="65" height="45" rx="8" fill="white"/>
<path d="M90.6037 117.636L93.608 123.357L96.6868 117.636H101.342L96.6016 125.818L101.47 134H96.8359L93.608 128.343L90.4332 134H85.7457L90.6037 125.818L85.9162 117.636H90.6037ZM112.134 134.298C110.494 134.298 109.034 134.032 107.756 133.499C106.484 132.96 105.487 132.224 104.762 131.294C104.038 130.364 103.675 129.309 103.675 128.13C103.675 127.221 103.881 126.386 104.293 125.626C104.712 124.859 105.281 124.224 105.998 123.719C106.715 123.208 107.518 122.881 108.406 122.739V122.59C107.241 122.356 106.296 121.791 105.572 120.896C104.847 119.994 104.485 118.947 104.485 117.754C104.485 116.624 104.815 115.619 105.476 114.739C106.136 113.851 107.042 113.155 108.192 112.651C109.35 112.139 110.664 111.884 112.134 111.884C113.604 111.884 114.915 112.139 116.065 112.651C117.223 113.162 118.132 113.862 118.793 114.749C119.453 115.63 119.787 116.631 119.794 117.754C119.787 118.954 119.418 120.001 118.686 120.896C117.955 121.791 117.017 122.356 115.874 122.59V122.739C116.747 122.881 117.539 123.208 118.249 123.719C118.967 124.224 119.535 124.859 119.954 125.626C120.38 126.386 120.597 127.221 120.604 128.13C120.597 129.309 120.231 130.364 119.506 131.294C118.782 132.224 117.781 132.96 116.502 133.499C115.231 134.032 113.775 134.298 112.134 134.298ZM112.134 130.911C112.866 130.911 113.505 130.779 114.052 130.516C114.599 130.246 115.025 129.877 115.33 129.408C115.643 128.933 115.799 128.386 115.799 127.768C115.799 127.136 115.639 126.578 115.32 126.095C115 125.605 114.567 125.222 114.02 124.945C113.473 124.661 112.844 124.518 112.134 124.518C111.431 124.518 110.803 124.661 110.249 124.945C109.695 125.222 109.258 125.605 108.938 126.095C108.626 126.578 108.469 127.136 108.469 127.768C108.469 128.386 108.622 128.933 108.928 129.408C109.233 129.877 109.663 130.246 110.217 130.516C110.771 130.779 111.41 130.911 112.134 130.911ZM112.134 121.163C112.745 121.163 113.288 121.038 113.764 120.79C114.24 120.541 114.613 120.197 114.883 119.756C115.153 119.316 115.288 118.808 115.288 118.233C115.288 117.665 115.153 117.168 114.883 116.741C114.613 116.308 114.244 115.971 113.775 115.729C113.306 115.481 112.759 115.357 112.134 115.357C111.516 115.357 110.969 115.481 110.494 115.729C110.018 115.971 109.645 116.308 109.375 116.741C109.112 117.168 108.981 117.665 108.981 118.233C108.981 118.808 109.116 119.316 109.386 119.756C109.656 120.197 110.028 120.541 110.504 120.79C110.98 121.038 111.523 121.163 112.134 121.163ZM132.203 134.298C131.08 134.291 129.997 134.103 128.953 133.734C127.916 133.364 126.986 132.764 126.162 131.933C125.338 131.102 124.685 130.001 124.202 128.631C123.726 127.26 123.488 125.577 123.488 123.581C123.495 121.749 123.705 120.112 124.117 118.67C124.536 117.221 125.132 115.992 125.906 114.984C126.688 113.975 127.622 113.208 128.708 112.683C129.795 112.15 131.013 111.884 132.362 111.884C133.818 111.884 135.104 112.168 136.219 112.736C137.334 113.297 138.229 114.06 138.904 115.026C139.585 115.992 139.997 117.075 140.139 118.276H135.59C135.413 117.516 135.04 116.919 134.472 116.486C133.904 116.053 133.2 115.836 132.362 115.836C130.942 115.836 129.862 116.454 129.124 117.69C128.392 118.925 128.019 120.605 128.005 122.729H128.154C128.481 122.082 128.921 121.532 129.475 121.077C130.036 120.616 130.672 120.264 131.382 120.023C132.1 119.774 132.856 119.65 133.651 119.65C134.944 119.65 136.095 119.955 137.103 120.566C138.112 121.17 138.907 122.001 139.49 123.059C140.072 124.117 140.363 125.328 140.363 126.692C140.363 128.169 140.019 129.483 139.33 130.634C138.648 131.784 137.693 132.686 136.464 133.339C135.242 133.986 133.822 134.305 132.203 134.298ZM132.181 130.676C132.892 130.676 133.527 130.506 134.088 130.165C134.649 129.824 135.09 129.362 135.409 128.78C135.729 128.197 135.889 127.544 135.889 126.82C135.889 126.095 135.729 125.445 135.409 124.87C135.097 124.295 134.664 123.837 134.11 123.496C133.556 123.155 132.923 122.984 132.213 122.984C131.681 122.984 131.187 123.084 130.732 123.283C130.285 123.482 129.891 123.759 129.55 124.114C129.216 124.469 128.953 124.881 128.762 125.349C128.57 125.811 128.474 126.305 128.474 126.83C128.474 127.533 128.634 128.176 128.953 128.759C129.28 129.341 129.72 129.806 130.274 130.154C130.835 130.502 131.471 130.676 132.181 130.676Z" fill="#271307"/>
<defs>
<clipPath id="bgblur_0_214_16_clip_path" transform="translate(-71 -90)"><rect x="81" y="100" width="65" height="45" rx="8"/>
</clipPath></defs>
</svg>
