<svg width="150" height="150" viewBox="0 0 150 150" fill="none" xmlns="http://www.w3.org/2000/svg">
<path d="M32 42.4569C32 35.6927 36.5273 29.7653 43.0532 27.9855L85.062 16.5285C86.3483 16.1777 87.6755 16 89.0088 16H128.704C138.331 16 145.466 24.9403 143.33 34.3277L136.75 63.25L126.737 105.462C125.133 112.225 119.093 117 112.142 117H47C38.7157 117 32 110.284 32 102V42.4569Z" fill="#271307"/>
<path d="M125 76.5V95C125 111.569 111.569 125 95 125H55C38.4315 125 25 111.569 25 95V55C25 38.4315 38.4315 25 55 25H86.5" stroke="#ED9B6D" stroke-width="18" stroke-linecap="round"/>
<path d="M124.679 34.9106L81.5091 89.4881C79.5693 91.9405 75.8761 92.0354 73.8187 89.6808L56 70" stroke="white" stroke-width="14" stroke-linecap="round"/>
</svg>
