<svg width="500" height="150" viewBox="0 0 500 150" fill="none" xmlns="http://www.w3.org/2000/svg">
<path d="M210.816 103.96C205.76 103.96 201.888 102.52 199.2 99.64C196.576 96.76 195.264 92.696 195.264 87.448V51.352C195.264 46.104 196.576 42.04 199.2 39.16C201.888 36.28 205.76 34.84 210.816 34.84C215.872 34.84 219.712 36.28 222.336 39.16C225.024 42.04 226.368 46.104 226.368 51.352V58.456H216.384V50.68C216.384 46.52 214.624 44.44 211.104 44.44C207.584 44.44 205.824 46.52 205.824 50.68V88.216C205.824 92.312 207.584 94.36 211.104 94.36C214.624 94.36 216.384 92.312 216.384 88.216V77.944H226.368V87.448C226.368 92.696 225.024 96.76 222.336 99.64C219.712 102.52 215.872 103.96 210.816 103.96Z" fill="white"/>
<path d="M248.046 103.96C242.926 103.96 239.022 102.52 236.334 99.64C233.646 96.696 232.302 92.504 232.302 87.064V54.52H242.862V87.832C242.862 90.136 243.31 91.8 244.206 92.824C245.166 93.848 246.51 94.36 248.238 94.36C249.966 94.36 251.278 93.848 252.174 92.824C253.134 91.8 253.614 90.136 253.614 87.832V58.456H263.79V87.064C263.79 92.504 262.446 96.696 259.758 99.64C257.07 102.52 253.166 103.96 248.046 103.96Z" fill="white"/>
<path d="M279.567 45.4H268.527V35.8H301.167V45.4H290.127V103H279.567V45.4Z" fill="white"/>
<path d="M310.034 35.8H324.338L335.282 103H324.722L322.802 89.656V89.848H310.802L308.882 103H299.09L310.034 35.8ZM321.554 80.728L316.85 47.512H316.658L312.05 80.728H321.554Z" fill="white"/>
<path d="M353.852 103.96C348.732 103.96 344.86 102.52 342.236 99.64C339.612 96.696 338.3 92.504 338.3 87.064V83.224H348.284V87.832C348.284 92.184 350.108 94.36 353.756 94.36C355.548 94.36 356.892 93.848 357.788 92.824C358.748 91.736 359.228 90.008 359.228 87.64C359.228 84.824 358.588 82.36 357.308 80.248C356.028 78.072 353.66 75.48 350.204 72.472C345.852 68.632 342.812 65.176 341.084 62.104C339.356 58.968 338.492 55.448 338.492 51.544C338.492 46.232 339.836 42.136 342.524 39.256C345.212 36.312 349.116 34.84 354.236 34.84C359.292 34.84 363.1 36.312 365.66 39.256C368.284 42.136 369.596 46.296 369.596 51.736V54.52H359.612V51.064C359.612 48.76 359.164 47.096 358.268 46.072C357.372 44.984 356.06 44.44 354.332 44.44C350.812 44.44 349.052 46.584 349.052 50.872C349.052 53.304 349.692 55.576 350.972 57.688C352.316 59.8 354.716 62.36 358.172 65.368C362.588 69.208 365.628 72.696 367.292 75.832C368.956 78.968 369.788 82.648 369.788 86.872C369.788 92.376 368.412 96.6 365.66 99.544C362.972 102.488 359.036 103.96 353.852 103.96Z" fill="white"/>
<path d="M375.842 35.8H386.402V64.12L399.842 35.8H410.402L397.826 60.472L410.594 103H399.554L390.626 73.048L386.402 81.592V103H375.842V35.8Z" fill="white"/>
<path d="M428.664 103.96C423.544 103.96 419.672 102.52 417.048 99.64C414.424 96.696 413.112 92.504 413.112 87.064V83.224H423.096V87.832C423.096 92.184 424.92 94.36 428.568 94.36C430.36 94.36 431.704 93.848 432.6 92.824C433.56 91.736 434.04 90.008 434.04 87.64C434.04 84.824 433.4 82.36 432.12 80.248C430.84 78.072 428.472 75.48 425.016 72.472C420.664 68.632 417.624 65.176 415.896 62.104C414.168 58.968 413.304 55.448 413.304 51.544C413.304 46.232 414.648 42.136 417.336 39.256C420.024 36.312 423.928 34.84 429.048 34.84C434.104 34.84 437.912 36.312 440.472 39.256C443.096 42.136 444.408 46.296 444.408 51.736V54.52H434.424V51.064C434.424 48.76 433.976 47.096 433.08 46.072C432.184 44.984 430.872 44.44 429.144 44.44C425.624 44.44 423.864 46.584 423.864 50.872C423.864 53.304 424.504 55.576 425.784 57.688C427.128 59.8 429.528 62.36 432.984 65.368C437.4 69.208 440.44 72.696 442.104 75.832C443.768 78.968 444.6 82.648 444.6 86.872C444.6 92.376 443.224 96.6 440.472 99.544C437.784 102.488 433.848 103.96 428.664 103.96Z" fill="white"/>
<path d="M153 75V95C153 111.569 139.569 125 123 125H83C66.4315 125 53 111.569 53 95V55C53 38.4315 66.4315 25 83 25H103" stroke="#ED9B6D" stroke-width="15" stroke-linecap="round"/>
<path d="M78 62.4208L101.819 89.6808C103.876 92.0354 107.569 91.9405 109.509 89.4881C125.569 69.1838 135.644 56.4469 152.679 34.9106" stroke="white" stroke-width="12" stroke-linecap="round"/>
</svg>
