<svg width="450" height="150" viewBox="0 0 450 150" fill="none" xmlns="http://www.w3.org/2000/svg">
<path d="M32 42.4569C32 35.6927 36.5273 29.7653 43.0532 27.9855L85.062 16.5285C86.3483 16.1777 87.6755 16 89.0088 16H128.704C138.331 16 145.466 24.9403 143.33 34.3277L136.75 63.25L126.737 105.462C125.133 112.225 119.093 117 112.142 117H47C38.7157 117 32 110.284 32 102V42.4569Z" fill="#271307"/>
<path d="M125 76.5V95C125 111.569 111.569 125 95 125H55C38.4315 125 25 111.569 25 95V55C25 38.4315 38.4315 25 55 25H86.5" stroke="#ED9B6D" stroke-width="18" stroke-linecap="round"/>
<path d="M124.679 34.9106L81.5091 89.4881C79.5693 91.9405 75.8761 92.0354 73.8187 89.6808L56 70" stroke="white" stroke-width="14" stroke-linecap="round"/>
<path d="M193.552 109.12C188.496 109.12 184.624 107.68 181.936 104.8C179.312 101.92 178 97.856 178 92.608V56.512C178 51.264 179.312 47.2 181.936 44.32C184.624 41.44 188.496 40 193.552 40C198.608 40 202.448 41.44 205.072 44.32C207.76 47.2 209.104 51.264 209.104 56.512V63.616H199.12V55.84C199.12 51.68 197.36 49.6 193.84 49.6C190.32 49.6 188.56 51.68 188.56 55.84V93.376C188.56 97.472 190.32 99.52 193.84 99.52C197.36 99.52 199.12 97.472 199.12 93.376V83.104H209.104V92.608C209.104 97.856 207.76 101.92 205.072 104.8C202.448 107.68 198.608 109.12 193.552 109.12Z" fill="white"/>
<path d="M230.782 109.12C225.662 109.12 221.758 107.68 219.07 104.8C216.382 101.856 215.038 97.664 215.038 92.224V59.68H220.318H225.598V92.992C225.598 95.296 226.046 96.96 226.942 97.984C227.902 99.008 229.246 99.52 230.974 99.52C232.702 99.52 234.014 99.008 234.91 97.984C235.87 96.96 236.35 95.296 236.35 92.992V63.616H241.438H246.526V92.224C246.526 97.664 245.182 101.856 242.494 104.8C239.806 107.68 235.902 109.12 230.782 109.12Z" fill="white"/>
<path d="M262.303 50.56H251.263V40.96H283.903V50.56H272.863V108.16H262.303V50.56Z" fill="white"/>
<path d="M292.77 40.96H307.074L318.018 108.16H307.458L305.537 94.816V95.008H293.537L291.618 108.16H281.826L292.77 40.96ZM304.289 85.888L299.586 52.672H299.394L294.785 85.888H304.289Z" fill="white"/>
<path d="M336.587 109.12C331.467 109.12 327.595 107.68 324.971 104.8C322.347 101.856 321.036 97.664 321.036 92.224V88.384H331.02V92.992C331.02 97.344 332.844 99.52 336.492 99.52C338.284 99.52 339.627 99.008 340.523 97.984C341.483 96.896 341.964 95.168 341.964 92.8C341.964 89.984 341.324 87.52 340.044 85.408C338.764 83.232 336.395 80.64 332.939 77.632C328.587 73.792 325.548 70.336 323.82 67.264C322.092 64.128 321.227 60.608 321.227 56.704C321.227 51.392 322.572 47.296 325.26 44.416C327.948 41.472 331.851 40 336.971 40C342.027 40 345.836 41.472 348.396 44.416C351.02 47.296 352.331 51.456 352.331 56.896V59.68H342.348V56.224C342.348 53.92 341.899 52.256 341.003 51.232C340.107 50.144 338.796 49.6 337.068 49.6C333.548 49.6 331.788 51.744 331.788 56.032C331.788 58.464 332.428 60.736 333.708 62.848C335.052 64.96 337.452 67.52 340.908 70.528C345.324 74.368 348.363 77.856 350.027 80.992C351.691 84.128 352.523 87.808 352.523 92.032C352.523 97.536 351.148 101.76 348.396 104.704C345.708 107.648 341.771 109.12 336.587 109.12Z" fill="white"/>
<path d="M358.578 40.96H369.138V69.28L382.578 40.96H393.138L380.562 65.632L393.33 108.16H382.29L373.362 78.208L369.138 86.752V108.16H358.578V40.96Z" fill="white"/>
<path d="M411.4 109.12C406.28 109.12 402.408 107.68 399.784 104.8C397.16 101.856 395.848 97.664 395.848 92.224V88.384H405.832V92.992C405.832 97.344 407.656 99.52 411.304 99.52C413.096 99.52 414.44 99.008 415.336 97.984C416.296 96.896 416.776 95.168 416.776 92.8C416.776 89.984 416.136 87.52 414.856 85.408C413.576 83.232 411.208 80.64 407.752 77.632C403.4 73.792 400.36 70.336 398.632 67.264C396.904 64.128 396.04 60.608 396.04 56.704C396.04 51.392 397.384 47.296 400.072 44.416C402.76 41.472 406.664 40 411.784 40C416.84 40 420.648 41.472 423.208 44.416C425.832 47.296 427.144 51.456 427.144 56.896V59.68H417.16V56.224C417.16 53.92 416.712 52.256 415.816 51.232C414.92 50.144 413.608 49.6 411.88 49.6C408.36 49.6 406.6 51.744 406.6 56.032C406.6 58.464 407.24 60.736 408.52 62.848C409.864 64.96 412.264 67.52 415.72 70.528C420.136 74.368 423.176 77.856 424.84 80.992C426.504 84.128 427.336 87.808 427.336 92.032C427.336 97.536 425.96 101.76 423.208 104.704C420.52 107.648 416.584 109.12 411.4 109.12Z" fill="white"/>
</svg>
