<svg width="477" height="138" viewBox="0 0 477 138" fill="none" xmlns="http://www.w3.org/2000/svg">
<path d="M186.816 97.9601C181.76 97.9601 177.888 96.5201 175.2 93.6401C172.576 90.7601 171.264 86.6961 171.264 81.4481V45.3521C171.264 40.1041 172.576 36.0401 175.2 33.1601C177.888 30.2801 181.76 28.8401 186.816 28.8401C191.872 28.8401 195.712 30.2801 198.336 33.1601C201.024 36.0401 202.368 40.1041 202.368 45.3521V47.4641C202.368 50.2211 200.133 52.4561 197.376 52.4561C194.619 52.4561 192.384 50.2211 192.384 47.4641V44.6801C192.384 40.5201 190.624 38.4401 187.104 38.4401C183.584 38.4401 181.824 40.5201 181.824 44.6801V82.2161C181.824 86.3121 183.584 88.3601 187.104 88.3601C190.624 88.3601 192.384 86.3121 192.384 82.2161V76.9361C192.384 74.1791 194.619 71.9441 197.376 71.9441C200.133 71.9441 202.368 74.1791 202.368 76.9361V81.4481C202.368 86.6961 201.024 90.7601 198.336 93.6401C195.712 96.5201 191.872 97.9601 186.816 97.9601Z" fill="white"/>
<path d="M224.046 97.9601C218.926 97.9601 215.022 96.5201 212.334 93.6401C209.646 90.6961 208.302 86.5041 208.302 81.0641V53.8001C208.302 50.884 210.666 48.5201 213.582 48.5201C216.498 48.5201 218.862 50.884 218.862 53.8001V81.8321C218.862 84.1361 219.31 85.8001 220.206 86.8241C221.166 87.8481 222.51 88.3601 224.238 88.3601C225.966 88.3601 227.278 87.8481 228.174 86.8241C229.134 85.8001 229.614 84.1361 229.614 81.8321V57.5441C229.614 54.7341 231.892 52.4561 234.702 52.4561C237.512 52.4561 239.79 54.7341 239.79 57.5441V81.0641C239.79 86.5041 238.446 90.6961 235.758 93.6401C233.07 96.5201 229.166 97.9601 224.046 97.9601Z" fill="white"/>
<path d="M255.567 39.4001H249.327C246.676 39.4001 244.527 37.2511 244.527 34.6001C244.527 31.9491 246.676 29.8001 249.327 29.8001H272.367C275.018 29.8001 277.167 31.9491 277.167 34.6001C277.167 37.2511 275.018 39.4001 272.367 39.4001H266.127V91.7201C266.127 94.6362 263.763 97.0001 260.847 97.0001C257.931 97.0001 255.567 94.6362 255.567 91.7201V39.4001Z" fill="white"/>
<path d="M284.884 36.8591C285.547 32.7893 289.062 29.8001 293.186 29.8001C297.309 29.8001 300.824 32.7893 301.487 36.8591L310.304 90.9987C310.816 94.1445 308.388 97.0001 305.201 97.0001C302.63 97.0001 300.45 95.111 300.084 92.5662L298.802 83.6561V83.8481H286.802L285.481 92.8948C285.137 95.2522 283.115 97.0001 280.733 97.0001C277.775 97.0001 275.521 94.3498 275.997 91.4303L284.884 36.8591ZM297.554 74.7281L292.85 41.5121H292.658L288.05 74.7281H297.554Z" fill="white"/>
<path d="M329.852 97.9601C324.732 97.9601 320.86 96.5201 318.236 93.6401C315.612 90.6961 314.3 86.5041 314.3 81.0641C314.3 78.9433 316.019 77.2241 318.14 77.2241H319.676C322.22 77.2241 324.284 79.2872 324.284 81.8321C324.284 86.1841 326.108 88.3601 329.756 88.3601C331.548 88.3601 332.892 87.8481 333.788 86.8241C334.748 85.7361 335.228 84.0081 335.228 81.6401C335.228 78.8241 334.588 76.3601 333.308 74.2481C332.028 72.0721 329.66 69.4801 326.204 66.4721C321.852 62.6321 318.812 59.1761 317.084 56.1041C315.356 52.9681 314.492 49.4481 314.492 45.5441C314.492 40.2321 315.836 36.1361 318.524 33.2561C321.212 30.3121 325.116 28.8401 330.236 28.8401C335.292 28.8401 339.1 30.3121 341.66 33.2561C344.284 36.1361 345.596 40.2961 345.596 45.7361C345.596 47.2737 344.349 48.5201 342.812 48.5201H339.068C337.159 48.5201 335.612 46.9728 335.612 45.0641C335.612 42.7601 335.164 41.0961 334.268 40.0721C333.372 38.9841 332.06 38.4401 330.332 38.4401C326.812 38.4401 325.052 40.5841 325.052 44.8721C325.052 47.3041 325.692 49.5761 326.972 51.6881C328.316 53.8001 330.716 56.3601 334.172 59.3681C338.588 63.2081 341.628 66.6961 343.292 69.8321C344.956 72.9681 345.788 76.6481 345.788 80.8721C345.788 86.3761 344.412 90.6001 341.66 93.5441C338.972 96.4881 335.036 97.9601 329.852 97.9601Z" fill="white"/>
<path d="M351.842 35.0801C351.842 32.164 354.206 29.8001 357.122 29.8001C360.038 29.8001 362.402 32.164 362.402 35.0801V58.1201L374.578 32.4641C375.35 30.8371 376.99 29.8001 378.791 29.8001C382.273 29.8001 384.527 33.4786 382.946 36.5812L373.826 54.4721L384.552 90.198C385.57 93.5879 383.032 97.0001 379.492 97.0001C377.156 97.0001 375.097 95.4653 374.429 93.2262L366.626 67.0481L362.402 75.5921V91.7201C362.402 94.6362 360.038 97.0001 357.122 97.0001C354.206 97.0001 351.842 94.6362 351.842 91.7201V35.0801Z" fill="white"/>
<path d="M404.664 97.9601C399.544 97.9601 395.672 96.5201 393.048 93.6401C390.424 90.6961 389.112 86.5041 389.112 81.0641C389.112 78.9433 390.831 77.2241 392.952 77.2241H394.488C397.033 77.2241 399.096 79.2872 399.096 81.8321C399.096 86.1841 400.92 88.3601 404.568 88.3601C406.36 88.3601 407.704 87.8481 408.6 86.8241C409.56 85.7361 410.04 84.0081 410.04 81.6401C410.04 78.8241 409.4 76.3601 408.12 74.2481C406.84 72.0721 404.472 69.4801 401.016 66.4721C396.664 62.6321 393.624 59.1761 391.896 56.1041C390.168 52.9681 389.304 49.4481 389.304 45.5441C389.304 40.2321 390.648 36.1361 393.336 33.2561C396.024 30.3121 399.928 28.8401 405.048 28.8401C410.104 28.8401 413.912 30.3121 416.472 33.2561C419.096 36.1361 420.408 40.2961 420.408 45.7361C420.408 47.2737 419.162 48.5201 417.624 48.5201H413.88C411.971 48.5201 410.424 46.9728 410.424 45.0641C410.424 42.7601 409.976 41.0961 409.08 40.0721C408.184 38.9841 406.872 38.4401 405.144 38.4401C401.624 38.4401 399.864 40.5841 399.864 44.8721C399.864 47.3041 400.504 49.5761 401.784 51.6881C403.128 53.8001 405.528 56.3601 408.984 59.3681C413.4 63.2081 416.44 66.6961 418.104 69.8321C419.768 72.9681 420.6 76.6481 420.6 80.8721C420.6 86.3761 419.224 90.6001 416.472 93.5441C413.784 96.4881 409.848 97.9601 404.664 97.9601Z" fill="white"/>
<path d="M129 70.5V89C129 105.569 115.569 119 99 119H59C42.4315 119 29 105.569 29 89V49C29 32.4315 42.4315 19 59 19H90.5" stroke="#ED9B6D" stroke-width="18" stroke-linecap="round"/>
<path d="M128.679 28.9106L85.5091 83.4881C83.5693 85.9405 79.8761 86.0354 77.8187 83.6808L60 64" stroke="white" stroke-width="14" stroke-linecap="round"/>
</svg>
